<svg width="24" height="24" viewBox="0 0 24 24" fill="none" xmlns="http://www.w3.org/2000/svg">
<path d="M14.25 10.5C14.25 9.90326 14.0129 9.33097 13.591 8.90901C13.169 8.48705 12.5967 8.25 12 8.25C11.4033 8.25 10.831 8.48705 10.409 8.90901C9.98705 9.33097 9.75 9.90326 9.75 10.5C9.75 11.0967 9.98705 11.669 10.409 12.091C10.831 12.5129 11.4033 12.75 12 12.75C12.5967 12.75 13.169 12.5129 13.591 12.091C14.0129 11.669 14.25 11.0967 14.25 10.5ZM21 10.5C21 14.811 16.3545 19.524 13.7385 21.837C13.2602 22.2642 12.6413 22.5003 12 22.5003C11.3587 22.5003 10.7398 22.2642 10.2615 21.837C7.6455 19.524 3 14.811 3 10.5C3 9.3181 3.23279 8.14778 3.68508 7.05585C4.13738 5.96392 4.80031 4.97177 5.63604 4.13604C6.47177 3.30031 7.46392 2.63738 8.55585 2.18508C9.64778 1.73279 10.8181 1.5 12 1.5C13.1819 1.5 14.3522 1.73279 15.4442 2.18508C16.5361 2.63738 17.5282 3.30031 18.364 4.13604C19.1997 4.97177 19.8626 5.96392 20.3149 7.05585C20.7672 8.14778 21 9.3181 21 10.5ZM19.5 10.5C19.5 8.51088 18.7098 6.60322 17.3033 5.1967C15.8968 3.79018 13.9891 3 12 3C10.0109 3 8.10322 3.79018 6.6967 5.1967C5.29018 6.60322 4.5 8.51088 4.5 10.5C4.5 12.162 5.4225 14.0925 6.855 16.0245C8.256 17.9115 9.9855 19.59 11.2545 20.7135C11.4587 20.8986 11.7244 21.0011 12 21.0011C12.2756 21.0011 12.5413 20.8986 12.7455 20.7135C14.0145 19.59 15.7455 17.913 17.145 16.0245C18.5775 14.0925 19.5 12.162 19.5 10.5Z" fill="#B1B1B1"/>
</svg>
