<svg width="18" height="18" viewBox="0 0 18 18" fill="none" xmlns="http://www.w3.org/2000/svg">
<path d="M10.6875 7.875C10.6875 7.42745 10.5097 6.99822 10.1932 6.68176C9.87678 6.36529 9.44755 6.1875 9 6.1875C8.55245 6.1875 8.12322 6.36529 7.80676 6.68176C7.49029 6.99822 7.3125 7.42745 7.3125 7.875C7.3125 8.32255 7.49029 8.75178 7.80676 9.06824C8.12322 9.38471 8.55245 9.5625 9 9.5625C9.44755 9.5625 9.87678 9.38471 10.1932 9.06824C10.5097 8.75178 10.6875 8.32255 10.6875 7.875ZM15.75 7.875C15.75 11.1083 12.2659 14.643 10.3039 16.3777C9.94513 16.6981 9.48098 16.8752 9 16.8752C8.51902 16.8752 8.05487 16.6981 7.69613 16.3777C5.73413 14.643 2.25 11.1083 2.25 7.875C2.25 6.98858 2.42459 6.11083 2.76381 5.29189C3.10303 4.47294 3.60023 3.72882 4.22703 3.10203C4.85382 2.47523 5.59794 1.97803 6.41689 1.63881C7.23583 1.29959 8.11358 1.125 9 1.125C9.88642 1.125 10.7642 1.29959 11.5831 1.63881C12.4021 1.97803 13.1462 2.47523 13.773 3.10203C14.3998 3.72882 14.897 4.47294 15.2362 5.29189C15.5754 6.11083 15.75 6.98858 15.75 7.875ZM14.625 7.875C14.625 6.38316 14.0324 4.95242 12.9775 3.89752C11.9226 2.84263 10.4918 2.25 9 2.25C7.50816 2.25 6.07742 2.84263 5.02252 3.89752C3.96763 4.95242 3.375 6.38316 3.375 7.875C3.375 9.1215 4.06688 10.5694 5.14125 12.0184C6.192 13.4336 7.48912 14.6925 8.44087 15.5351C8.59401 15.6739 8.79331 15.7508 9 15.7508C9.20669 15.7508 9.40599 15.6739 9.55912 15.5351C10.5109 14.6925 11.8091 13.4347 12.8588 12.0184C13.9331 10.5694 14.625 9.1215 14.625 7.875Z" fill="#3F3E3E"/>
</svg>
