<svg width="165" height="42" viewBox="0 0 165 42" fill="none" xmlns="http://www.w3.org/2000/svg">
<mask id="path-1-outside-1_36_118" maskUnits="userSpaceOnUse" x="0" y="0" width="32" height="42" fill="black">
<rect fill="white" width="32" height="42"/>
<path d="M0 6C0 2.68629 2.68629 0 6 0H26C29.3137 0 32 2.68629 32 6V34C32 37.3137 29.3137 40 26 40H6C2.68629 40 0 37.3137 0 34V6Z"/>
</mask>
<path d="M0 6C0 2.68629 2.68629 0 6 0H26C29.3137 0 32 2.68629 32 6V34C32 37.3137 29.3137 40 26 40H6C2.68629 40 0 37.3137 0 34V6Z" fill="#FBC002"/>
<path d="M0 0H32H0ZM32 34C32 38.4183 28.4183 42 24 42H8C3.58172 42 0 38.4183 0 34C0 36.2091 2.68629 38 6 38H26C29.3137 38 32 36.2091 32 34ZM0 40V0V40ZM32 0V40V0Z" fill="#BA8E03" mask="url(#path-1-outside-1_36_118)"/>
<rect x="14" y="9" width="12" height="12" rx="6" fill="#FBC002" stroke="#FDF2EC" stroke-width="2"/>
<path d="M46.0366 28.5C45.7006 28.5 45.4606 28.332 45.4606 28.044V27.948C45.4606 27.276 46.4206 26.988 46.4206 25.86V14.1C46.4206 12.972 45.4606 12.684 45.4606 12.012V11.916C45.4606 11.628 45.6766 11.46 46.0126 11.46H57.0046C57.5326 11.46 57.7246 11.676 57.8206 12.204L58.3966 15.228C58.4686 15.66 58.2046 15.924 57.7966 15.924H57.6766C56.3326 15.924 55.6366 13.116 53.9326 13.116H51.8206C51.2446 13.116 50.7406 13.404 50.7406 14.292V18.996H53.2606C54.5326 18.996 54.6766 17.076 55.3726 17.076H55.5646C55.8526 17.076 56.0446 17.292 56.0446 17.628V21.948C56.0446 22.284 55.8526 22.5 55.5646 22.5H55.3726C54.6766 22.5 54.5326 20.676 53.2606 20.676H50.7406V25.092C50.7406 25.908 51.0766 26.844 52.1806 26.844H54.7006C56.4046 26.844 56.8126 23.868 58.2526 23.868H58.4686C58.8526 23.868 59.0206 24.276 58.9726 24.588L58.4446 27.732C58.3486 28.26 58.1566 28.5 57.6046 28.5H46.0366ZM71.3779 16.98C71.7139 16.98 71.9299 17.148 71.9299 17.436V17.532C71.9299 18.204 70.7299 18.54 70.3219 19.596L67.2259 27.876C67.0819 28.308 66.8179 28.5 66.3859 28.5H64.2739C63.8179 28.5 63.6259 28.308 63.4099 27.876L59.7619 19.596C59.3059 18.612 58.4899 18.204 58.4899 17.532V17.436C58.4899 17.148 58.7059 16.98 59.0419 16.98H64.5619C64.8739 16.98 65.0899 17.172 65.0899 17.46V17.556C65.0899 18.204 64.2019 18.42 64.6819 19.668L66.7459 25.092L68.4979 20.268C69.1459 18.372 67.6339 18.204 67.6339 17.556V17.46C67.6339 17.172 67.8499 16.98 68.1859 16.98H71.3779ZM81.6119 24.708C81.9479 24.372 82.5239 24.516 82.4999 25.044C82.4519 26.364 80.7719 28.74 77.6279 28.74C74.1479 28.74 71.6999 26.316 71.6999 22.668C71.6999 19.116 74.4599 16.74 77.6039 16.74C80.7479 16.74 82.1879 18.516 82.1879 20.028C82.1879 20.748 81.8039 21.228 81.2519 21.516L76.4759 24.204C77.0999 25.188 78.0359 25.764 79.2119 25.764C80.2439 25.764 81.1799 25.284 81.6119 24.708ZM77.1719 17.916C76.1879 17.916 75.5639 19.044 75.5639 20.436C75.5639 21.372 75.6839 22.236 75.9239 22.956L78.1559 21.612C78.5399 21.348 78.7799 20.892 78.7799 20.388C78.7799 19.62 78.3959 17.916 77.1719 17.916ZM96.5461 25.884C96.6181 26.988 97.4101 27.276 97.4101 27.972V28.068C97.4101 28.356 97.1701 28.524 96.8341 28.524H92.0341C91.6741 28.524 91.4581 28.356 91.4581 28.068V27.972C91.4581 27.276 92.3941 26.988 92.3221 25.884L92.0821 21.588C91.9621 19.212 91.5061 18.324 90.4261 18.324C89.3701 18.324 88.8661 19.26 88.8661 20.652V25.884C88.8661 26.988 89.9221 27.276 89.9221 27.972V28.068C89.9221 28.356 89.7061 28.524 89.3461 28.524H84.1621C83.8021 28.524 83.5861 28.356 83.5861 28.068V27.972C83.5861 27.276 84.6421 26.988 84.6421 25.884V21.156C84.6421 20.004 83.3701 19.86 83.3701 19.164V19.092C83.3701 18.804 83.6101 18.66 83.9461 18.492L87.3061 16.836C87.9061 16.524 88.2181 16.932 88.2181 17.412V18.54C88.8661 17.388 90.0661 16.74 91.6501 16.74C93.7381 16.74 95.9461 17.916 96.2341 21.732L96.5461 25.884ZM103.248 28.74C100.872 28.74 99.3363 27.204 99.3363 24.3V18.612H98.4243C98.1123 18.612 97.8723 18.372 97.8723 18.06V17.532C97.8723 17.196 98.0883 16.98 98.4243 16.98H98.8803C100.344 16.98 101.496 16.02 101.808 14.556C101.88 14.172 102.144 13.932 102.456 13.932H103.008C103.392 13.932 103.656 14.172 103.656 14.556V16.98H106.128C106.44 16.98 106.68 17.22 106.68 17.532V18.06C106.68 18.372 106.44 18.612 106.128 18.612H103.656V24.372C103.656 25.188 104.136 25.668 104.736 25.668C105.672 25.668 106.056 25.212 106.32 24.78C106.656 24.348 107.232 24.492 107.232 24.948C107.232 26.796 105.864 28.74 103.248 28.74ZM115.256 28.74C110.864 28.74 107.984 26.508 107.984 24.372C107.984 23.364 108.512 22.668 109.712 22.668C112.304 22.692 111.824 27.156 115.424 27.156C116.816 27.156 117.704 26.412 117.704 25.164C117.704 20.484 108.296 23.46 108.272 16.428C108.272 13.38 110.816 11.244 114.776 11.244C118.76 11.244 121.688 13.356 121.664 15.54C121.664 16.596 121.064 17.292 119.84 17.292C116.936 17.292 117.68 12.804 114.704 12.804C113.192 12.804 112.472 13.74 112.472 14.916C112.472 20.052 121.856 17.052 121.856 23.772C121.856 26.94 118.808 28.74 115.256 28.74ZM135.874 25.884C135.946 26.988 136.738 27.276 136.738 27.972V28.068C136.738 28.356 136.498 28.524 136.162 28.524H131.362C131.002 28.524 130.786 28.356 130.786 28.068V27.972C130.786 27.276 131.722 26.988 131.65 25.884L131.41 21.588C131.29 19.212 130.834 18.324 129.754 18.324C128.698 18.324 128.194 19.26 128.194 20.652V25.884C128.194 26.988 129.25 27.276 129.25 27.972V28.068C129.25 28.356 129.034 28.524 128.674 28.524H123.49C123.13 28.524 122.914 28.356 122.914 28.068V27.972C122.914 27.276 123.97 26.988 123.97 25.884V21.156C123.97 20.004 122.698 19.86 122.698 19.164V19.092C122.698 18.804 122.938 18.66 123.274 18.492L126.634 16.836C127.234 16.524 127.546 16.932 127.546 17.412V18.54C128.194 17.388 129.394 16.74 130.978 16.74C133.066 16.74 135.274 17.916 135.562 21.732L135.874 25.884ZM149.031 25.884C149.247 27.588 150.255 27.18 150.255 27.852C150.255 28.476 148.863 28.644 147.543 28.644C146.103 28.644 145.407 28.356 145.215 27.492C144.711 28.188 143.751 28.74 142.167 28.74C139.599 28.74 137.631 27.564 137.631 25.092C137.631 22.668 139.671 21.42 141.951 21.42C142.959 21.42 143.775 21.66 144.375 22.02V21.948C144.087 19.116 143.919 17.892 142.671 17.892C141.015 17.892 141.687 21.108 139.551 21.108C138.543 21.108 137.871 20.484 137.871 19.548C137.871 17.58 140.223 16.74 142.671 16.74C145.887 16.74 148.119 18.612 148.503 21.588L149.031 25.884ZM143.487 27.516C144.279 27.516 144.735 26.604 144.735 25.788L144.639 24.684C144.471 23.244 143.847 22.692 143.151 22.692C142.431 22.692 141.927 23.34 141.927 24.324C141.927 26.028 142.503 27.516 143.487 27.516ZM158.314 16.74C161.026 16.74 163.978 18.636 163.978 22.548C163.978 26.34 161.29 28.74 158.314 28.74C157.306 28.74 156.514 28.5 155.866 28.044V30.948C155.866 32.052 156.946 32.34 156.946 33.012V33.108C156.946 33.396 156.706 33.564 156.37 33.564H151.282C150.946 33.564 150.706 33.396 150.706 33.108V33.012C150.706 32.34 151.666 32.052 151.666 30.948V21.108C151.666 20.076 150.514 19.956 150.514 19.26V19.14C150.514 18.852 150.73 18.636 151.066 18.444L154.234 16.884C154.954 16.548 155.242 16.884 155.242 17.364V18.06C155.842 17.22 156.946 16.74 158.314 16.74ZM157.93 27.564C159.154 27.564 159.754 26.508 159.754 24.54C159.754 21.948 159.058 17.916 157.306 17.916C156.442 17.916 155.866 18.684 155.866 19.812V24.156C155.866 26.196 156.874 27.564 157.93 27.564Z" fill="black"/>
</svg>
