<svg width="17" height="17" viewBox="0 0 17 17" fill="none" xmlns="http://www.w3.org/2000/svg">
<g clip-path="url(#clip0_46_421)">
<path d="M8.16668 1.7334L16.202 8.50006L8.16668 15.2667V11.1154C5.37068 11.2487 3.45135 12.2487 2.04268 14.2207L0.84668 13.7027C1.19535 11.9581 1.90001 10.1727 3.16535 8.72807C4.33935 7.3854 5.97135 6.36607 8.16668 5.93673V1.7334ZM9.50001 4.60007V7.07806L8.92801 7.16006C6.74801 7.4714 5.22735 8.3954 4.16801 9.60607C3.70359 10.1426 3.3126 10.7384 3.00535 11.3781C4.56401 10.2774 6.48535 9.76673 8.83335 9.76673H9.50001V12.4001L14.132 8.50006L9.50001 4.60007Z" fill="black"/>
</g>
<defs>
<clipPath id="clip0_46_421">
<rect width="16" height="16" fill="white" transform="translate(0.5 0.5)"/>
</clipPath>
</defs>
</svg>
